<svg width="24" height="24" viewBox="0 0 24 24" fill="none" xmlns="http://www.w3.org/2000/svg">
<path d="M8.34904 6.18605C7.96765 6.18605 7.65137 5.86977 7.65137 5.48837V2.69767C7.65137 2.31628 7.96765 2 8.34904 2C8.73044 2 9.04672 2.31628 9.04672 2.69767V5.48837C9.04672 5.86977 8.73044 6.18605 8.34904 6.18605Z" fill="#253017"/>
<path d="M15.7909 6.18605C15.4095 6.18605 15.0933 5.86977 15.0933 5.48837V2.69767C15.0933 2.31628 15.4095 2 15.7909 2C16.1723 2 16.4886 2.31628 16.4886 2.69767V5.48837C16.4886 5.86977 16.1723 6.18605 15.7909 6.18605Z" fill="#253017"/>
<path d="M8.81402 14.3255C8.69309 14.3255 8.57216 14.2976 8.46053 14.2511C8.3396 14.2046 8.24658 14.1395 8.15356 14.0557C7.98612 13.879 7.88379 13.6464 7.88379 13.3953C7.88379 13.2744 7.9117 13.1534 7.95821 13.0418C8.00472 12.9302 8.06984 12.8279 8.15356 12.7348C8.24658 12.6511 8.3396 12.586 8.46053 12.5395C8.79542 12.3999 9.21402 12.4744 9.47449 12.7348C9.64193 12.9116 9.74425 13.1534 9.74425 13.3953C9.74425 13.4511 9.73495 13.5162 9.72565 13.5813C9.71635 13.6372 9.69774 13.693 9.66983 13.7488C9.65123 13.8046 9.62333 13.8604 9.58612 13.9162C9.55821 13.9627 9.5117 14.0092 9.47449 14.0557C9.29774 14.2232 9.05588 14.3255 8.81402 14.3255Z" fill="#253017"/>
<path d="M12.0699 14.3255C11.949 14.3255 11.828 14.2976 11.7164 14.2511C11.5955 14.2046 11.5024 14.1394 11.4094 14.0557C11.242 13.879 11.1396 13.6464 11.1396 13.3953C11.1396 13.2743 11.1676 13.1534 11.2141 13.0418C11.2606 12.9301 11.3257 12.8278 11.4094 12.7348C11.5024 12.6511 11.5955 12.586 11.7164 12.5394C12.0513 12.3906 12.4699 12.4743 12.7303 12.7348C12.8978 12.9116 13.0001 13.1534 13.0001 13.3953C13.0001 13.4511 12.9908 13.5162 12.9815 13.5813C12.9722 13.6371 12.9536 13.6929 12.9257 13.7488C12.9071 13.8046 12.8792 13.8604 12.842 13.9162C12.8141 13.9627 12.7676 14.0092 12.7303 14.0557C12.5536 14.2232 12.3117 14.3255 12.0699 14.3255Z" fill="#253017"/>
<path d="M15.3257 14.3255C15.2048 14.3255 15.0839 14.2976 14.9723 14.2511C14.8513 14.2046 14.7583 14.1394 14.6653 14.0557C14.6281 14.0092 14.5909 13.9627 14.5536 13.9162C14.5164 13.8604 14.4885 13.8046 14.4699 13.7488C14.442 13.6929 14.4234 13.6371 14.4141 13.5813C14.4048 13.5162 14.3955 13.4511 14.3955 13.3953C14.3955 13.1534 14.4978 12.9116 14.6653 12.7348C14.7583 12.6511 14.8513 12.586 14.9723 12.5394C15.3164 12.3906 15.7257 12.4743 15.9862 12.7348C16.1536 12.9116 16.256 13.1534 16.256 13.3953C16.256 13.4511 16.2467 13.5162 16.2374 13.5813C16.2281 13.6371 16.2095 13.6929 16.1816 13.7488C16.1629 13.8046 16.135 13.8604 16.0978 13.9162C16.0699 13.9627 16.0234 14.0092 15.9862 14.0557C15.8095 14.2232 15.5676 14.3255 15.3257 14.3255Z" fill="#253017"/>
<path d="M8.81402 17.5815C8.69309 17.5815 8.57216 17.5536 8.46053 17.5071C8.3489 17.4606 8.24658 17.3954 8.15356 17.3117C7.98612 17.135 7.88379 16.8931 7.88379 16.6513C7.88379 16.5303 7.9117 16.4094 7.95821 16.2978C8.00472 16.1768 8.06984 16.0745 8.15356 15.9908C8.49774 15.6466 9.1303 15.6466 9.47449 15.9908C9.64193 16.1675 9.74425 16.4094 9.74425 16.6513C9.74425 16.8931 9.64193 17.135 9.47449 17.3117C9.29774 17.4792 9.05588 17.5815 8.81402 17.5815Z" fill="#253017"/>
<path d="M12.0699 17.5815C11.828 17.5815 11.5862 17.4792 11.4094 17.3117C11.242 17.135 11.1396 16.8931 11.1396 16.6513C11.1396 16.5303 11.1676 16.4094 11.2141 16.2978C11.2606 16.1768 11.3257 16.0745 11.4094 15.9908C11.7536 15.6466 12.3862 15.6466 12.7303 15.9908C12.8141 16.0745 12.8792 16.1768 12.9257 16.2978C12.9722 16.4094 13.0001 16.5303 13.0001 16.6513C13.0001 16.8931 12.8978 17.135 12.7303 17.3117C12.5536 17.4792 12.3117 17.5815 12.0699 17.5815Z" fill="#253017"/>
<path d="M15.3257 17.5815C15.0839 17.5815 14.842 17.4792 14.6653 17.3117C14.5816 17.228 14.5164 17.1257 14.4699 17.0048C14.4234 16.8931 14.3955 16.7722 14.3955 16.6513C14.3955 16.5303 14.4234 16.4094 14.4699 16.2978C14.5164 16.1769 14.5816 16.0745 14.6653 15.9908C14.8792 15.7769 15.2048 15.6745 15.5025 15.7396C15.5676 15.7489 15.6234 15.7675 15.6792 15.7954C15.735 15.8141 15.7909 15.842 15.8467 15.8792C15.8932 15.9071 15.9397 15.9536 15.9862 15.9908C16.1536 16.1676 16.256 16.4094 16.256 16.6513C16.256 16.8931 16.1536 17.135 15.9862 17.3117C15.8095 17.4792 15.5676 17.5815 15.3257 17.5815Z" fill="#253017"/>
<path d="M19.977 9.99056H4.16301C3.78161 9.99056 3.46533 9.67428 3.46533 9.29289C3.46533 8.91149 3.78161 8.59521 4.16301 8.59521H19.977C20.3584 8.59521 20.6746 8.91149 20.6746 9.29289C20.6746 9.67428 20.3584 9.99056 19.977 9.99056Z" fill="#253017"/>
<path d="M15.7907 21.9999H8.34884C4.95349 21.9999 3 20.0464 3 16.6511V8.7441C3 5.34875 4.95349 3.39526 8.34884 3.39526H15.7907C19.186 3.39526 21.1395 5.34875 21.1395 8.7441V16.6511C21.1395 20.0464 19.186 21.9999 15.7907 21.9999ZM8.34884 4.79061C5.68837 4.79061 4.39535 6.08364 4.39535 8.7441V16.6511C4.39535 19.3115 5.68837 20.6046 8.34884 20.6046H15.7907C18.4512 20.6046 19.7442 19.3115 19.7442 16.6511V8.7441C19.7442 6.08364 18.4512 4.79061 15.7907 4.79061H8.34884Z" fill="#253017"/>
</svg>
