<svg width="36" height="36" viewBox="0 0 36 36" fill="none" xmlns="http://www.w3.org/2000/svg">
<path d="M8.15065 22.9987C7.50175 21.532 7.1668 19.9458 7.16732 18.342C7.16732 12.167 12.0173 7.16536 18.0007 7.16536C23.984 7.16536 28.834 12.1687 28.834 18.342C28.8345 19.9458 28.4996 21.532 27.8507 22.9987M18.0007 1.33203V2.9987M34.6673 17.9987H33.0007M3.00065 17.9987H1.33398M29.784 6.2137L28.6057 7.39203M7.39565 7.3937L6.21732 6.21536M22.1957 30.177C23.879 29.632 24.5557 28.0904 24.7457 26.5404C24.8023 26.077 24.4206 25.692 23.954 25.692H12.129C12.015 25.6902 11.902 25.7126 11.7973 25.7578C11.6927 25.8029 11.5988 25.8697 11.5219 25.9539C11.445 26.038 11.3869 26.1375 11.3513 26.2458C11.3158 26.3541 11.3036 26.4687 11.3157 26.582C11.5023 28.1287 11.9723 29.2587 13.7557 30.1754M22.1957 30.177L13.7557 30.1754M22.1957 30.177C21.994 33.4187 21.0573 34.702 18.0123 34.6654C14.7557 34.7254 14.0057 33.137 13.7557 30.1754" stroke="#253017" stroke-width="1.5" stroke-linecap="round" stroke-linejoin="round"/>
</svg>
